<svg width="42" height="26" viewBox="0 0 42 26" fill="none" xmlns="http://www.w3.org/2000/svg">
<rect width="42" height="26" rx="4" fill="#2F70C8"/>
<path d="M30.9949 7.63691L30.1822 9.42838H31.812L30.9949 7.63691ZM21.6174 8.74705C21.7706 8.67435 21.8608 8.51621 21.8608 8.31983C21.8608 8.12738 21.766 7.98801 21.6129 7.92251C21.4733 7.84991 21.2587 7.84153 21.0529 7.84153H19.599V8.8397H21.0334C21.2631 8.83975 21.4551 8.83668 21.6174 8.74705ZM2.98783 7.63691L2.18437 9.42838H3.79613L2.98783 7.63691ZM40.3956 19.1136H38.1155V18.1497H40.3864C40.6115 18.1497 40.7692 18.1229 40.8641 18.0384C40.9539 17.9631 41.0046 17.8566 41.0037 17.7453C41.0037 17.6143 40.9465 17.5103 40.8593 17.4481C40.7738 17.3795 40.649 17.3483 40.4433 17.3483C39.3347 17.314 37.9517 17.3794 37.9517 15.957C37.9517 15.3051 38.4067 14.6189 39.6457 14.6189H41.9976V13.7246H39.8125C39.1531 13.7246 38.674 13.8682 38.3348 14.0917V13.7246H35.1027C34.586 13.7246 33.9793 13.8411 33.6924 14.0917V13.7246H27.9205V14.0917C27.4613 13.7902 26.6861 13.7246 26.3285 13.7246H22.5214V14.0917C22.1581 13.7715 21.3498 13.7246 20.8574 13.7246H16.5967L15.6218 14.6845L14.7086 13.7246H8.34386V19.9969H14.5885L15.5931 19.0216L16.5394 19.9969L20.3886 20V18.5245H20.7672C21.2779 18.532 21.8802 18.5131 22.4118 18.3041V19.9967H25.5867V18.3619H25.7399C25.9352 18.3619 25.9546 18.3693 25.9546 18.547V19.9964H35.5998C36.2121 19.9964 36.8522 19.8539 37.2066 19.5949V19.9964H40.2661C40.9026 19.9964 41.5244 19.9152 41.9975 19.7073V18.5389C41.7108 18.9204 41.1518 19.1136 40.3956 19.1136ZM20.8178 17.6326H19.3445V19.1402H17.0496L15.5957 17.6523L14.0849 19.1402H9.40804V14.6454H14.1568L15.6094 16.1188L17.1112 14.6454H20.884C21.821 14.6454 22.8738 14.8814 22.8738 16.1262C22.8738 17.3748 21.8498 17.6326 20.8178 17.6326ZM27.9019 17.4288C28.0687 17.6482 28.0927 17.853 28.0976 18.2492V19.1403H26.9121V18.578C26.9121 18.3076 26.9408 17.9071 26.7213 17.6981C26.5489 17.5372 26.2858 17.4987 25.855 17.4987H24.5932V19.1403H23.4069V14.6454H26.1326C26.7306 14.6454 27.1659 14.6696 27.5534 14.8575C27.926 15.0623 28.1605 15.3429 28.1605 15.8557C28.1604 16.573 27.6344 16.939 27.3236 17.0515C27.5863 17.1397 27.8011 17.2978 27.9019 17.4288ZM32.7791 15.575H30.0143V16.3921H32.7116V17.3092H30.0143V18.2036L32.7791 18.2076V19.1402H28.8385V14.6454H32.7791V15.575ZM35.8131 19.1402H33.5136V18.1763H35.804C36.028 18.1763 36.1868 18.1494 36.2863 18.065C36.3674 17.9955 36.4258 17.8944 36.4258 17.772C36.4258 17.6409 36.3626 17.5369 36.2817 17.4745C36.1913 17.406 36.0667 17.375 35.8612 17.375C34.757 17.3405 33.3742 17.4059 33.3742 15.9836C33.3742 15.3317 33.8245 14.6454 35.0623 14.6454H37.4294V15.602H35.2634C35.0487 15.602 34.9092 15.6094 34.7905 15.6834C34.661 15.7562 34.6131 15.8641 34.6131 16.0066C34.6131 16.1761 34.7229 16.2916 34.8714 16.3414C34.996 16.3809 35.1297 16.3924 35.3308 16.3924L35.9665 16.4082C36.6072 16.4221 37.0474 16.5232 37.3149 16.7695C37.5446 16.9859 37.668 17.2592 37.668 17.7218C37.6679 18.6888 37.0038 19.1402 35.8131 19.1402ZM26.6558 15.6475C26.5132 15.5704 26.3026 15.5663 26.0925 15.5663H24.6386V16.5758H26.0731C26.3027 16.5758 26.4981 16.5683 26.6558 16.4831C26.8089 16.399 26.9005 16.2439 26.9005 16.0517C26.9005 15.8595 26.8089 15.7203 26.6558 15.6475ZM39.8479 15.5662C39.6331 15.5662 39.4903 15.5736 39.3701 15.6474C39.2455 15.7203 39.1977 15.8282 39.1977 15.9708C39.1977 16.1403 39.3028 16.2557 39.4558 16.3057C39.5805 16.3451 39.7141 16.3566 39.9107 16.3566L40.5508 16.3721C41.1964 16.3866 41.6276 16.4877 41.8905 16.7341C41.9383 16.7682 41.9671 16.8067 42 16.8452V15.5663L39.8479 15.5662ZM20.8586 15.5662H19.3191V16.711H20.8449C21.2986 16.711 21.5807 16.5062 21.5809 16.1173C21.5807 15.7243 21.2849 15.5662 20.8586 15.5662ZM10.584 15.5662V16.3834H13.176V17.3005H10.584V18.1948H13.4869L14.8356 16.8761L13.5442 15.5662H10.584ZM18.1641 18.7095V15.1059L16.3514 16.8787L18.1641 18.7095ZM10.6831 11.4928V12.2673H20.5474L20.5428 10.6288H20.7337C20.8674 10.6331 20.9063 10.6443 20.9063 10.845V12.2673H26.0082V11.8858C26.4197 12.0865 27.0597 12.2673 27.9019 12.2673H30.0483L30.5076 11.2692H31.526L31.9752 12.2673H36.1113V11.3192L36.7375 12.2673H40.0521V6H36.772V6.74018L36.3126 6H32.9468V6.74018L32.525 6H27.9785C27.2173 6 26.5486 6.09663 26.0082 6.36597V6H22.8706V6.36597C22.5267 6.08835 22.0581 6 21.5372 6H10.0747L9.30568 7.61881L8.51585 6H4.90555V6.74018L4.50885 6H1.42986L5.38473e-05 8.97994V11.3636L2.11432 6.86974H3.86861L5.87657 11.1244V6.86974H7.80372L9.34887 9.91824L10.7684 6.86974H12.7342V11.3636H11.524L11.5196 7.84408L9.80743 11.3636H8.77076L7.05427 7.84096V11.3636H4.65268L4.19901 10.3612H1.74067L1.28232 11.3636H5.38473e-05L0 12.2676H2.01744L2.47229 11.2694H3.49076L3.94442 12.2676H7.91367V11.5044L8.26793 12.2708H10.3285L10.6831 11.4928ZM26.2272 7.39354C26.6087 7.03488 27.2066 6.86948 28.0202 6.86948H29.1632V7.83237H28.0442C27.6135 7.83237 27.37 7.89066 27.1357 8.09865C26.9343 8.28782 26.7963 8.64551 26.7963 9.1165C26.7963 9.59797 26.9015 9.94508 27.1209 10.1718C27.3026 10.3497 27.6331 10.4036 27.9438 10.4036H28.4743L30.1382 6.86963H31.9073L33.9063 11.1201V6.86969H35.7041L37.7795 9.99938V6.86969H38.9889V11.3634H37.3158L35.0778 7.99056V11.3634H32.6732L32.2137 10.361H29.761L29.3152 11.3634H27.9335C27.3597 11.3634 26.633 11.2479 26.2215 10.8663C25.8065 10.4848 25.5908 9.96794 25.5908 9.15081C25.5906 8.48425 25.7195 7.87501 26.2272 7.39354ZM23.7986 6.86953H25.0033V11.3634H23.7986V6.86953ZM18.3671 6.86953H21.0827C21.6859 6.86953 22.1308 6.8841 22.5125 7.08478C22.886 7.28551 23.1099 7.57857 23.1099 8.07973C23.1099 8.79629 22.5842 9.1664 22.2781 9.27761C22.5363 9.36708 22.7571 9.52512 22.8623 9.656C23.029 9.87954 23.0577 10.0792 23.0577 10.4805V11.3633H21.8669L21.8624 10.7966C21.8624 10.5262 21.8908 10.1373 21.676 9.9212C21.5036 9.76322 21.2405 9.72881 20.8154 9.72881H19.5479V11.3634H18.3672L18.3671 6.86953ZM13.6073 6.86953H17.5516V7.80533H14.7881V8.61535H17.4853V9.53652H14.7881V10.434H17.5516V11.3633H13.6073V6.86953Z" fill="#FEFEFE"/>
</svg>
