<svg width="42" height="26" viewBox="0 0 42 26" fill="none" xmlns="http://www.w3.org/2000/svg">
<rect x="0.375" y="0.375" width="41.25" height="25.25" rx="3.625" fill="white"/>
<path d="M12.1587 8.32413C12.4918 7.90918 12.7178 7.35197 12.6582 6.78262C12.1706 6.80678 11.5755 7.10304 11.2309 7.51829C10.9215 7.87399 10.6477 8.45446 10.7191 8.99995C11.2666 9.04727 11.8135 8.72745 12.1587 8.32413Z" fill="black"/>
<path d="M12.6521 9.10647C11.8571 9.05925 11.1811 9.55582 10.8014 9.55582C10.4216 9.55582 9.84019 9.13023 9.21138 9.14166C8.39294 9.15369 7.63353 9.61447 7.2182 10.3475C6.36394 11.8137 6.99277 13.9887 7.82348 15.1828C8.22689 15.7737 8.71308 16.4241 9.35369 16.4008C9.95897 16.3771 10.1962 16.0105 10.932 16.0105C11.6672 16.0105 11.8808 16.4008 12.5216 16.3889C13.1861 16.3771 13.6014 15.7978 14.0049 15.2065C14.4676 14.533 14.6571 13.8827 14.669 13.847C14.657 13.8352 13.3877 13.3502 13.3759 11.8962C13.364 10.6787 14.3725 10.0995 14.42 10.0636C13.8505 9.22477 12.9606 9.13023 12.6521 9.10647Z" fill="black"/>
<path fill-rule="evenodd" clip-rule="evenodd" d="M22.5058 10.3719C22.5058 8.64485 21.3025 7.45874 19.5746 7.45874H16.2358V16.3271H17.6181V13.2973H19.5313C21.2778 13.2973 22.5058 12.1049 22.5058 10.3719ZM19.2042 12.1418H17.6181V8.62039H19.2104C20.4076 8.62039 21.0926 9.25952 21.0926 10.378C21.0926 11.4966 20.4076 12.1418 19.2042 12.1418Z" fill="black"/>
<path fill-rule="evenodd" clip-rule="evenodd" d="M25.2799 12.5782C23.737 12.6643 22.8668 13.3587 22.8668 14.4897C22.8668 15.6512 23.7555 16.4379 25.0268 16.4379C25.8784 16.4379 26.6993 15.9831 27.0757 15.264H27.1064V16.3272H28.3839V11.8715C28.3839 10.5748 27.378 9.74506 25.8044 9.74506C24.1998 9.74506 23.2001 10.6055 23.126 11.7732H24.3849C24.5021 11.1954 24.9835 10.8268 25.7551 10.8268C26.5695 10.8268 27.0571 11.2569 27.0571 11.9761V12.4739L25.2799 12.5782ZM27.0571 13.3957V13.9058C27.0571 14.7478 26.3289 15.387 25.397 15.387C24.6811 15.387 24.2121 15.0182 24.2121 14.4528C24.2121 13.8997 24.6626 13.5494 25.4587 13.494L27.0571 13.3957Z" fill="black"/>
<path d="M29.5901 18.7054V17.63C29.6886 17.6544 29.9107 17.6544 30.0219 17.6544C30.6391 17.6544 30.9723 17.3963 31.1758 16.7327C31.1758 16.7203 31.2932 16.3393 31.2932 16.3331L28.9482 9.86157H30.3921L32.0339 15.1224H32.0584L33.7002 9.86157H35.1072L32.6755 16.665C32.1203 18.2322 31.4785 18.7361 30.1331 18.7361C30.0219 18.7361 29.6886 18.7238 29.5901 18.7054Z" fill="black"/>
<rect x="0.375" y="0.375" width="41.25" height="25.25" rx="3.625" stroke="black" stroke-width="0.75"/>
</svg>
