<svg width="42" height="26" viewBox="0 0 42 26" fill="none" xmlns="http://www.w3.org/2000/svg">
<rect x="0.375" y="0.375" width="41.25" height="25.25" rx="3.625" fill="white"/>
<path fill-rule="evenodd" clip-rule="evenodd" d="M20.1972 16.6146V12.926H22.0995C22.8791 12.926 23.537 12.6646 24.0734 12.1491L24.2021 12.0184C25.1819 10.951 25.1174 9.28836 24.0734 8.30085C23.5512 7.77802 22.8362 7.49482 22.0995 7.50935H19.0458V16.6146H20.1972ZM20.1972 11.8078V8.62751H22.1281C22.543 8.62751 22.9362 8.78736 23.2295 9.07778C23.8517 9.68769 23.866 10.7043 23.2652 11.3359C22.972 11.6481 22.5572 11.8224 22.1281 11.8078H20.1972Z" fill="#3C4043"/>
<path fill-rule="evenodd" clip-rule="evenodd" d="M29.5729 10.8709C29.0794 10.4135 28.4071 10.1811 27.5562 10.1811C26.4619 10.1811 25.6395 10.5877 25.096 11.3937L26.1115 12.0399C26.4834 11.488 26.9912 11.2122 27.6349 11.2122C28.0424 11.2122 28.4358 11.3647 28.7433 11.6406C29.0436 11.902 29.2154 12.2795 29.2154 12.6788V12.9475C28.7719 12.7007 28.2141 12.57 27.5276 12.57C26.7265 12.57 26.0829 12.7588 25.6037 13.1435C25.1246 13.5285 24.8814 14.0367 24.8814 14.6829C24.8671 15.271 25.1175 15.8301 25.5608 16.2076C26.0114 16.6142 26.5835 16.8176 27.2558 16.8176C28.0496 16.8176 28.6789 16.4618 29.1581 15.7502H29.2082V16.6142H30.3095V12.7733C30.3095 11.9673 30.0664 11.3283 29.5729 10.8709ZM26.4476 15.467C26.2117 15.2928 26.0687 15.0096 26.0687 14.7047C26.0687 14.3634 26.2259 14.0802 26.5334 13.8551C26.8481 13.63 27.2415 13.5139 27.7063 13.5139C28.3499 13.5066 28.8506 13.6519 29.2082 13.9423C29.2082 14.436 29.0151 14.8644 28.636 15.2274C28.2927 15.576 27.8279 15.772 27.3415 15.772C27.0198 15.7793 26.7052 15.6703 26.4476 15.467Z" fill="#3C4043"/>
<path d="M36.6315 10.3847L32.7839 19.3519H31.5967L33.0271 16.2153L30.5026 10.3847H31.7541L33.5778 14.8575H33.5993L35.38 10.3847H36.6315Z" fill="#3C4043"/>
<path d="M15.5412 12.1271C15.5412 11.7712 15.5125 11.4155 15.4554 11.0669H10.5994V13.0783H13.3814C13.2669 13.7244 12.895 14.3052 12.3516 14.6683V15.9753H14.0108C14.9833 15.0677 15.5412 13.7244 15.5412 12.1271Z" fill="#4285F4"/>
<path d="M10.5998 17.2385C11.9872 17.2385 13.1601 16.7738 14.0112 15.9751L12.352 14.6681C11.8871 14.9876 11.2935 15.1691 10.5998 15.1691C9.25534 15.1691 8.11821 14.247 7.71057 13.0126H6.00133V14.3631C6.87382 16.1276 8.65455 17.2385 10.5998 17.2385Z" fill="#34A853"/>
<path d="M7.71035 13.0127C7.4958 12.3665 7.4958 11.6622 7.71035 11.0087V9.66537H6.00111C5.2645 11.1394 5.2645 12.8821 6.00111 14.356L7.71035 13.0127Z" fill="#FBBC04"/>
<path d="M10.5998 8.85227C11.3364 8.83778 12.0445 9.12096 12.5736 9.63653L14.0469 8.14071C13.11 7.2549 11.8799 6.76841 10.5998 6.78294C8.65455 6.78294 6.87382 7.9011 6.00133 9.66559L7.71057 11.016C8.11822 9.77442 9.25534 8.85227 10.5998 8.85227Z" fill="#EA4335"/>
<rect x="0.375" y="0.375" width="41.25" height="25.25" rx="3.625" stroke="black" stroke-width="0.75"/>
</svg>
