<svg xmlns="http://www.w3.org/2000/svg" xmlns:xlink="http://www.w3.org/1999/xlink" width="500" zoomAndPan="magnify" viewBox="0 0 375 374.999991" height="500" preserveAspectRatio="xMidYMid meet" version="1.0"><defs><g/><clipPath id="7d9c49383c"><path d="M 76.914062 126.066406 L 110.78125 126.066406 L 110.78125 254.871094 L 76.914062 254.871094 Z M 76.914062 126.066406 " clip-rule="nonzero"/></clipPath><clipPath id="7898310e56"><path d="M 187.023438 125.917969 L 220.890625 125.917969 L 220.890625 258.460938 L 187.023438 258.460938 Z M 187.023438 125.917969 " clip-rule="nonzero"/></clipPath><clipPath id="c49831053a"><path d="M 191 103 L 303 103 L 303 240 L 191 240 Z M 191 103 " clip-rule="nonzero"/></clipPath><clipPath id="8d138c0ac1"><path d="M 275.183594 103.402344 L 302.691406 123.15625 L 219.277344 239.316406 L 191.769531 219.5625 Z M 275.183594 103.402344 " clip-rule="nonzero"/></clipPath><clipPath id="b22f6dc586"><path d="M 275.183594 103.402344 L 302.691406 123.15625 L 219.3125 239.269531 L 191.800781 219.515625 Z M 275.183594 103.402344 " clip-rule="nonzero"/></clipPath><clipPath id="9dad223d54"><path d="M 215 189 L 306 189 L 306 288 L 215 288 Z M 215 189 " clip-rule="nonzero"/></clipPath><clipPath id="0ecfe91a95"><path d="M 305.917969 265.023438 L 280.191406 287.050781 L 215.320312 211.277344 L 241.046875 189.25 Z M 305.917969 265.023438 " clip-rule="nonzero"/></clipPath><clipPath id="4e2ca51e53"><path d="M 305.917969 265.023438 L 280.191406 287.050781 L 215.351562 211.3125 L 241.078125 189.289062 Z M 305.917969 265.023438 " clip-rule="nonzero"/></clipPath><clipPath id="9dcd554ddf"><path d="M 215.347656 92.042969 L 315.050781 92.042969 L 315.050781 125.910156 L 215.347656 125.910156 Z M 215.347656 92.042969 " clip-rule="nonzero"/></clipPath><clipPath id="9ad83ac345"><path d="M 215.347656 258.453125 L 315.050781 258.453125 L 315.050781 292.320312 L 215.347656 292.320312 Z M 215.347656 258.453125 " clip-rule="nonzero"/></clipPath><clipPath id="bf700172c7"><path d="M 119 125 L 216 125 L 216 259 L 119 259 Z M 119 125 " clip-rule="nonzero"/></clipPath><clipPath id="fd042c63e3"><path d="M 185.578125 125.785156 L 215.003906 142.554688 L 148.847656 258.644531 L 119.421875 241.875 Z M 185.578125 125.785156 " clip-rule="nonzero"/></clipPath><clipPath id="2942d7260a"><path d="M 185.578125 125.785156 L 215.003906 142.554688 L 148.878906 258.589844 L 119.453125 241.820312 Z M 185.578125 125.785156 " clip-rule="nonzero"/></clipPath><clipPath id="2553b4b0fd"><path d="M 82 126 L 179 126 L 179 259 L 82 259 Z M 82 126 " clip-rule="nonzero"/></clipPath><clipPath id="db3bde7416"><path d="M 82.089844 143.054688 L 111.386719 126.066406 L 178.417969 241.652344 L 149.121094 258.644531 Z M 82.089844 143.054688 " clip-rule="nonzero"/></clipPath><clipPath id="0190423d5b"><path d="M 82.089844 143.054688 L 111.386719 126.066406 L 178.386719 241.601562 L 149.089844 258.589844 Z M 82.089844 143.054688 " clip-rule="nonzero"/></clipPath><clipPath id="e17500c903"><path d="M 120 221 L 188 221 L 188 318 L 120 318 Z M 120 221 " clip-rule="nonzero"/></clipPath><clipPath id="0d94eca60a"><path d="M 169.855469 221.796875 L 187.023438 231.628906 L 137.875 317.460938 L 120.707031 307.628906 Z M 169.855469 221.796875 " clip-rule="nonzero"/></clipPath><clipPath id="bf11594202"><path d="M 169.855469 221.796875 L 187.023438 231.628906 L 137.894531 317.425781 L 120.726562 307.59375 Z M 169.855469 221.796875 " clip-rule="nonzero"/></clipPath><clipPath id="eaafb8bbb5"><path d="M 110 223 L 179 223 L 179 319 L 110 319 Z M 110 223 " clip-rule="nonzero"/></clipPath><clipPath id="631e7a040a"><path d="M 110.785156 234.128906 L 128.847656 223.535156 L 178.390625 308.003906 L 160.324219 318.601562 Z M 110.785156 234.128906 " clip-rule="nonzero"/></clipPath><clipPath id="37d879b684"><path d="M 110.785156 234.128906 L 128.847656 223.535156 L 178.382812 307.992188 L 160.320312 318.589844 Z M 110.785156 234.128906 " clip-rule="nonzero"/></clipPath></defs><rect x="-37.5" width="450" fill="#ffffff" y="-37.499999" height="449.999989" fill-opacity="1"/><rect x="-37.5" width="450" fill="#000000" y="-37.499999" height="449.999989" fill-opacity="1"/><g clip-path="url(#7d9c49383c)"><path fill="#ffffff" d="M 76.914062 126.066406 L 110.78125 126.066406 L 110.78125 254.921875 L 76.914062 254.921875 Z M 76.914062 126.066406 " fill-opacity="1" fill-rule="nonzero"/></g><g clip-path="url(#7898310e56)"><path fill="#ffffff" d="M 187.023438 125.917969 L 220.890625 125.917969 L 220.890625 258.476562 L 187.023438 258.476562 Z M 187.023438 125.917969 " fill-opacity="1" fill-rule="nonzero"/></g><g clip-path="url(#c49831053a)"><g clip-path="url(#8d138c0ac1)"><g clip-path="url(#b22f6dc586)"><path fill="#ffffff" d="M 275.183594 103.402344 L 302.691406 123.15625 L 219.277344 239.316406 L 191.765625 219.5625 Z M 275.183594 103.402344 " fill-opacity="1" fill-rule="nonzero"/></g></g></g><g clip-path="url(#9dad223d54)"><g clip-path="url(#0ecfe91a95)"><g clip-path="url(#4e2ca51e53)"><path fill="#ffffff" d="M 305.917969 265.023438 L 280.191406 287.050781 L 215.320312 211.277344 L 241.046875 189.25 Z M 305.917969 265.023438 " fill-opacity="1" fill-rule="nonzero"/></g></g></g><g clip-path="url(#9dcd554ddf)"><path fill="#000000" d="M 315.050781 92.042969 L 315.050781 125.910156 L 215.300781 125.910156 L 215.300781 92.042969 Z M 315.050781 92.042969 " fill-opacity="1" fill-rule="nonzero"/></g><g clip-path="url(#9ad83ac345)"><path fill="#000000" d="M 315.050781 258.453125 L 315.050781 292.320312 L 215.300781 292.320312 L 215.300781 258.453125 Z M 315.050781 258.453125 " fill-opacity="1" fill-rule="nonzero"/></g><g clip-path="url(#bf700172c7)"><g clip-path="url(#fd042c63e3)"><g clip-path="url(#2942d7260a)"><path fill="#ffffff" d="M 185.578125 125.785156 L 215.003906 142.554688 L 148.847656 258.644531 L 119.421875 241.875 Z M 185.578125 125.785156 " fill-opacity="1" fill-rule="nonzero"/></g></g></g><g clip-path="url(#2553b4b0fd)"><g clip-path="url(#db3bde7416)"><g clip-path="url(#0190423d5b)"><path fill="#ffffff" d="M 82.089844 143.054688 L 111.386719 126.066406 L 178.417969 241.652344 L 149.121094 258.644531 Z M 82.089844 143.054688 " fill-opacity="1" fill-rule="nonzero"/></g></g></g><g clip-path="url(#e17500c903)"><g clip-path="url(#0d94eca60a)"><g clip-path="url(#bf11594202)"><path fill="#000000" d="M 169.855469 221.796875 L 187.023438 231.628906 L 137.910156 317.394531 L 120.746094 307.5625 Z M 169.855469 221.796875 " fill-opacity="1" fill-rule="nonzero"/></g></g></g><g clip-path="url(#eaafb8bbb5)"><g clip-path="url(#631e7a040a)"><g clip-path="url(#37d879b684)"><path fill="#000000" d="M 110.785156 234.128906 L 128.847656 223.535156 L 178.390625 308.003906 L 160.324219 318.601562 Z M 110.785156 234.128906 " fill-opacity="1" fill-rule="nonzero"/></g></g></g><g fill="#ffffff" fill-opacity="1"><g transform="translate(81.426986, 281.768389)"><g><path d="M 7.0625 0 L 3.96875 -10.078125 L 3.890625 -10.078125 C 3.992188 -8.023438 4.046875 -6.660156 4.046875 -5.984375 L 4.046875 0 L 1.625 0 L 1.625 -12.84375 L 5.328125 -12.84375 L 8.375 -3.03125 L 8.421875 -3.03125 L 11.640625 -12.84375 L 15.359375 -12.84375 L 15.359375 0 L 12.8125 0 L 12.8125 -6.078125 C 12.8125 -6.367188 12.816406 -6.703125 12.828125 -7.078125 C 12.835938 -7.453125 12.878906 -8.445312 12.953125 -10.0625 L 12.875 -10.0625 L 9.546875 0 Z M 7.0625 0 "/></g></g></g><g fill="#ffffff" fill-opacity="1"><g transform="translate(109.738996, 281.768389)"><g><path d="M 9.484375 0 L 8.546875 -3.0625 L 3.875 -3.0625 L 2.9375 0 L 0 0 L 4.53125 -12.90625 L 7.859375 -12.90625 L 12.421875 0 Z M 7.90625 -5.34375 C 7.039062 -8.113281 6.550781 -9.679688 6.4375 -10.046875 C 6.332031 -10.410156 6.257812 -10.695312 6.21875 -10.90625 C 6.019531 -10.15625 5.460938 -8.300781 4.546875 -5.34375 Z M 7.90625 -5.34375 "/></g></g></g><g fill="#ffffff" fill-opacity="1"><g transform="translate(133.49827, 281.768389)"><g><path d="M 4.34375 -7.140625 L 5.21875 -7.140625 C 6.082031 -7.140625 6.71875 -7.28125 7.125 -7.5625 C 7.539062 -7.851562 7.75 -8.3125 7.75 -8.9375 C 7.75 -9.539062 7.535156 -9.972656 7.109375 -10.234375 C 6.691406 -10.492188 6.046875 -10.625 5.171875 -10.625 L 4.34375 -10.625 Z M 4.34375 -4.9375 L 4.34375 0 L 1.625 0 L 1.625 -12.84375 L 5.359375 -12.84375 C 7.109375 -12.84375 8.398438 -12.523438 9.234375 -11.890625 C 10.078125 -11.253906 10.5 -10.289062 10.5 -9 C 10.5 -8.238281 10.289062 -7.5625 9.875 -6.96875 C 9.457031 -6.382812 8.867188 -5.925781 8.109375 -5.59375 C 10.035156 -2.707031 11.296875 -0.84375 11.890625 0 L 8.859375 0 L 5.796875 -4.9375 Z M 4.34375 -4.9375 "/></g></g></g><g fill="#ffffff" fill-opacity="1"><g transform="translate(156.721415, 281.768389)"><g><path d="M 11.953125 0 L 8.859375 0 L 5.5 -5.421875 L 4.34375 -4.59375 L 4.34375 0 L 1.625 0 L 1.625 -12.84375 L 4.34375 -12.84375 L 4.34375 -6.96875 L 5.421875 -8.484375 L 8.890625 -12.84375 L 11.921875 -12.84375 L 7.4375 -7.15625 Z M 11.953125 0 "/></g></g></g><g fill="#ffffff" fill-opacity="1"><g transform="translate(180.014867, 281.768389)"><g/></g></g><g fill="#ffffff" fill-opacity="1"><g transform="translate(196.030976, 281.768389)"><g><path d="M 4.296875 0 L 1.625 0 L 1.625 -12.84375 L 8.984375 -12.84375 L 8.984375 -10.625 L 4.296875 -10.625 L 4.296875 -7.296875 L 8.65625 -7.296875 L 8.65625 -5.078125 L 4.296875 -5.078125 Z M 4.296875 0 "/></g></g></g><g fill="#ffffff" fill-opacity="1"><g transform="translate(217.250209, 281.768389)"><g><path d="M 1.625 0 L 1.625 -12.84375 L 4.34375 -12.84375 L 4.34375 -2.25 L 9.546875 -2.25 L 9.546875 0 Z M 1.625 0 "/></g></g></g><g fill="#ffffff" fill-opacity="1"><g transform="translate(238.759481, 281.768389)"><g><path d="M 9.015625 0 L 1.625 0 L 1.625 -12.84375 L 9.015625 -12.84375 L 9.015625 -10.625 L 4.34375 -10.625 L 4.34375 -7.796875 L 8.6875 -7.796875 L 8.6875 -5.5625 L 4.34375 -5.5625 L 4.34375 -2.25 L 9.015625 -2.25 Z M 9.015625 0 "/></g></g></g><g fill="#ffffff" fill-opacity="1"><g transform="translate(260.180862, 281.768389)"><g><path d="M 9.015625 0 L 1.625 0 L 1.625 -12.84375 L 9.015625 -12.84375 L 9.015625 -10.625 L 4.34375 -10.625 L 4.34375 -7.796875 L 8.6875 -7.796875 L 8.6875 -5.5625 L 4.34375 -5.5625 L 4.34375 -2.25 L 9.015625 -2.25 Z M 9.015625 0 "/></g></g></g><g fill="#ffffff" fill-opacity="1"><g transform="translate(281.602244, 281.768389)"><g><path d="M 11.953125 0 L 8.859375 0 L 5.5 -5.421875 L 4.34375 -4.59375 L 4.34375 0 L 1.625 0 L 1.625 -12.84375 L 4.34375 -12.84375 L 4.34375 -6.96875 L 5.421875 -8.484375 L 8.890625 -12.84375 L 11.921875 -12.84375 L 7.4375 -7.15625 Z M 11.953125 0 "/></g></g></g></svg>