<svg width="42" height="26" viewBox="0 0 42 26" fill="none" xmlns="http://www.w3.org/2000/svg">
<rect width="42" height="26" rx="4" fill="#F6F6F6"/>
<path d="M13.4179 21.7079V20.4852C13.425 20.3824 13.4101 20.2792 13.3741 20.1826C13.338 20.086 13.2818 19.9981 13.209 19.9248C13.1362 19.8516 13.0485 19.7946 12.9519 19.7577C12.8552 19.7208 12.7518 19.7048 12.6485 19.7109C12.5132 19.702 12.3781 19.7295 12.2571 19.7905C12.1362 19.8514 12.0339 19.9435 11.9609 20.0573C11.8944 19.947 11.7992 19.8565 11.6854 19.7956C11.5716 19.7346 11.4434 19.7053 11.3143 19.7109C11.2018 19.7052 11.0897 19.7289 10.9892 19.7797C10.8887 19.8304 10.8033 19.9065 10.7414 20.0002V19.7598H10.3157V21.7079H10.7455V20.636C10.7363 20.5694 10.7421 20.5016 10.7623 20.4374C10.7825 20.3733 10.8167 20.3144 10.8625 20.2649C10.9082 20.2155 10.9644 20.1767 11.0269 20.1514C11.0895 20.1261 11.1569 20.1148 11.2243 20.1184C11.5067 20.1184 11.6499 20.3018 11.6499 20.6319V21.716H12.0796V20.636C12.0708 20.5695 12.0769 20.5018 12.0972 20.4378C12.1176 20.3738 12.1518 20.3151 12.1975 20.2657C12.2432 20.2164 12.2992 20.1776 12.3615 20.1521C12.4239 20.1267 12.4911 20.1152 12.5584 20.1184C12.849 20.1184 12.9881 20.3018 12.9881 20.6319V21.716L13.4179 21.7079ZM19.7756 19.7598H19.0757V19.1688H18.646V19.7598H18.2572V20.1469H18.6542V21.0436C18.6542 21.496 18.8302 21.7649 19.3336 21.7649C19.5216 21.7656 19.7061 21.7133 19.8656 21.6142L19.7428 21.2514C19.6287 21.3192 19.4991 21.3571 19.3663 21.3615C19.1617 21.3615 19.0839 21.231 19.0839 21.0354V20.1469H19.7797L19.7756 19.7598ZM23.4056 19.7109C23.3018 19.7078 23.1992 19.7327 23.1084 19.7829C23.0177 19.8331 22.9422 19.9068 22.89 19.9962V19.7598H22.4684V21.7079H22.8941V20.6156C22.8941 20.2937 23.0332 20.1143 23.3033 20.1143C23.3943 20.1131 23.4847 20.1297 23.5693 20.1633L23.7003 19.7557C23.6031 19.7211 23.5007 19.7032 23.3974 19.7027L23.4056 19.7109ZM17.9176 19.9146C17.6766 19.772 17.3997 19.7013 17.1195 19.7109C16.6243 19.7109 16.301 19.9472 16.301 20.3344C16.301 20.6523 16.5384 20.8479 16.9763 20.9091L17.1809 20.9376C17.4142 20.9702 17.5247 21.0313 17.5247 21.1414C17.5247 21.2922 17.3692 21.3778 17.0786 21.3778C16.8449 21.3845 16.6157 21.3127 16.4279 21.174L16.2233 21.5041C16.4712 21.6765 16.7682 21.7651 17.0704 21.7568C17.6352 21.7568 17.9626 21.4919 17.9626 21.121C17.9626 20.7501 17.7048 20.5993 17.2791 20.5382L17.0745 20.5097C16.8903 20.4852 16.743 20.4485 16.743 20.3181C16.743 20.1877 16.8822 20.0899 17.1154 20.0899C17.331 20.0924 17.5424 20.1499 17.7293 20.257L17.9176 19.9146ZM29.3172 19.7109C29.2135 19.7078 29.1108 19.7327 29.02 19.7829C28.9293 19.8331 28.8538 19.9068 28.8016 19.9962V19.7598H28.3801V21.7079H28.8057V20.6156C28.8057 20.2937 28.9448 20.1143 29.2149 20.1143C29.306 20.1131 29.3963 20.1297 29.4809 20.1633L29.6119 19.7557C29.5147 19.7211 29.4123 19.7032 29.3091 19.7027L29.3172 19.7109ZM23.8333 20.7298C23.8282 20.8667 23.8519 21.0031 23.9028 21.1304C23.9538 21.2576 24.0308 21.3729 24.129 21.4688C24.2273 21.5647 24.3445 21.6391 24.4733 21.6873C24.6021 21.7355 24.7395 21.7564 24.8769 21.7486C25.1324 21.7616 25.3836 21.6787 25.5808 21.5163L25.3762 21.174C25.229 21.2857 25.0496 21.3472 24.8646 21.3492C24.7073 21.3366 24.5605 21.2654 24.4535 21.1498C24.3465 21.0343 24.2871 20.8829 24.2871 20.7257C24.2871 20.5685 24.3465 20.4171 24.4535 20.3015C24.5605 20.186 24.7073 20.1148 24.8646 20.1021C25.0496 20.1042 25.229 20.1656 25.3762 20.2774L25.5808 19.935C25.3836 19.7726 25.1324 19.6898 24.8769 19.7027C24.7395 19.695 24.6021 19.7159 24.4733 19.764C24.3445 19.8122 24.2273 19.8867 24.129 19.9826C24.0308 20.0785 23.9538 20.1937 23.9028 20.321C23.8519 20.4483 23.8282 20.5847 23.8333 20.7216V20.7298ZM27.8194 20.7298V19.7598H27.3938V19.9962C27.3215 19.9035 27.2281 19.8294 27.1214 19.7798C27.0146 19.7302 26.8976 19.7065 26.7799 19.7109C26.5085 19.7109 26.2483 19.8182 26.0564 20.0093C25.8646 20.2004 25.7568 20.4595 25.7568 20.7298C25.7568 21 25.8646 21.2591 26.0564 21.4502C26.2483 21.6413 26.5085 21.7486 26.7799 21.7486C26.8976 21.753 27.0146 21.7294 27.1214 21.6797C27.2281 21.6301 27.3215 21.556 27.3938 21.4634V21.6997H27.8194V20.7298ZM26.2356 20.7298C26.2424 20.6151 26.2827 20.5049 26.3516 20.4127C26.4204 20.3206 26.5149 20.2505 26.6232 20.2112C26.7316 20.1718 26.8492 20.1648 26.9614 20.1912C27.0737 20.2175 27.1758 20.2759 27.2552 20.3593C27.3345 20.4427 27.3876 20.5473 27.408 20.6604C27.4284 20.7735 27.4151 20.89 27.3698 20.9956C27.3245 21.1013 27.2492 21.1914 27.1531 21.255C27.057 21.3185 26.9443 21.3527 26.829 21.3533C26.748 21.3543 26.6676 21.3386 26.593 21.3072C26.5183 21.2758 26.451 21.2294 26.3953 21.1708C26.3396 21.1123 26.2966 21.0428 26.2691 20.9669C26.2416 20.891 26.2302 20.8103 26.2356 20.7298ZM21.0995 19.7109C20.8281 19.7146 20.5694 19.8256 20.3802 20.0194C20.191 20.2131 20.0869 20.4738 20.0907 20.744C20.0945 21.0142 20.2059 21.2719 20.4005 21.4603C20.595 21.6487 20.8568 21.7524 21.1281 21.7486C21.4225 21.7637 21.7121 21.6693 21.9405 21.4837L21.7359 21.1699C21.5743 21.299 21.3741 21.3707 21.167 21.3737C21.0263 21.3857 20.8865 21.3427 20.7772 21.2536C20.6679 21.1646 20.5978 21.0366 20.5818 20.8969H22.0346C22.0346 20.8439 22.0346 20.7909 22.0346 20.7338C22.0346 20.1225 21.654 19.7149 21.1056 19.7149L21.0995 19.7109ZM21.0995 20.0899C21.1632 20.0885 21.2265 20.0997 21.2859 20.1227C21.3452 20.1458 21.3995 20.1802 21.4454 20.2241C21.4914 20.268 21.5283 20.3205 21.5539 20.3786C21.5795 20.4367 21.5934 20.4992 21.5947 20.5627H20.5716C20.579 20.4318 20.6375 20.3091 20.7347 20.2208C20.8318 20.1324 20.9598 20.0854 21.0913 20.0899H21.0995ZM31.7625 20.7338V18.9773H31.3533V19.9962C31.281 19.9035 31.1876 19.8294 31.0809 19.7798C30.9741 19.7302 30.8571 19.7065 30.7394 19.7109C30.468 19.7109 30.2078 19.8182 30.0159 20.0093C29.824 20.2004 29.7163 20.4595 29.7163 20.7298C29.7163 21 29.824 21.2591 30.0159 21.4502C30.2078 21.6413 30.468 21.7486 30.7394 21.7486C30.8571 21.753 30.9741 21.7294 31.0809 21.6797C31.1876 21.6301 31.281 21.556 31.3533 21.4634V21.6997H31.7625V20.7338ZM32.4726 21.4246C32.4992 21.4243 32.5256 21.4292 32.5503 21.4389C32.5738 21.4485 32.5953 21.4623 32.6138 21.4797C32.6317 21.4972 32.6463 21.518 32.6567 21.5408C32.6671 21.5646 32.6724 21.5903 32.6724 21.6162C32.6724 21.6421 32.6671 21.6678 32.6567 21.6916C32.6463 21.7144 32.6317 21.7352 32.6138 21.7527C32.5953 21.7701 32.5738 21.7839 32.5503 21.7935C32.5258 21.8042 32.4993 21.8098 32.4726 21.8098C32.4338 21.8095 32.3959 21.7982 32.3633 21.7773C32.3306 21.7564 32.3047 21.7266 32.2884 21.6916C32.2782 21.6678 32.2729 21.6421 32.2729 21.6162C32.2729 21.5903 32.2782 21.5646 32.2884 21.5408C32.2988 21.518 32.3134 21.4972 32.3314 21.4797C32.3498 21.4623 32.3713 21.4485 32.3948 21.4389C32.4215 21.4283 32.45 21.4235 32.4787 21.4246H32.4726ZM32.4726 21.769C32.493 21.7691 32.5132 21.765 32.5319 21.7568C32.5495 21.749 32.5655 21.7379 32.579 21.7242C32.6046 21.6964 32.6188 21.66 32.6188 21.6223C32.6188 21.5846 32.6046 21.5482 32.579 21.5204C32.5655 21.5067 32.5495 21.4956 32.5319 21.4878C32.5132 21.4797 32.493 21.4755 32.4726 21.4756C32.4522 21.4757 32.432 21.4798 32.4132 21.4878C32.3948 21.4953 32.3781 21.5064 32.3641 21.5204C32.3385 21.5482 32.3243 21.5846 32.3243 21.6223C32.3243 21.66 32.3385 21.6964 32.3641 21.7242C32.3782 21.7382 32.3949 21.7492 32.4132 21.7568C32.4339 21.7657 32.4562 21.7698 32.4787 21.769H32.4726ZM32.4848 21.5265C32.5039 21.5256 32.5228 21.5314 32.538 21.5428C32.5443 21.548 32.5492 21.5546 32.5524 21.562C32.5556 21.5695 32.557 21.5775 32.5565 21.5856C32.5567 21.5924 32.5556 21.5991 32.5532 21.6055C32.5507 21.6118 32.5469 21.6175 32.5421 21.6223C32.5303 21.633 32.5151 21.6395 32.4992 21.6406L32.5585 21.7079H32.5114L32.4562 21.6406H32.4378V21.7079H32.3989V21.5286L32.4848 21.5265ZM32.4398 21.5612V21.6101H32.4848C32.4928 21.6125 32.5014 21.6125 32.5094 21.6101C32.5108 21.6072 32.5116 21.6041 32.5116 21.6009C32.5116 21.5977 32.5108 21.5946 32.5094 21.5917C32.5108 21.5889 32.5116 21.5857 32.5116 21.5826C32.5116 21.5794 32.5108 21.5762 32.5094 21.5734C32.5014 21.571 32.4928 21.571 32.4848 21.5734L32.4398 21.5612ZM30.1889 20.7338C30.1957 20.6192 30.236 20.509 30.3049 20.4168C30.3738 20.3247 30.4682 20.2546 30.5766 20.2152C30.685 20.1759 30.8025 20.1689 30.9148 20.1952C31.0271 20.2216 31.1292 20.28 31.2085 20.3634C31.2879 20.4468 31.341 20.5514 31.3614 20.6645C31.3817 20.7776 31.3684 20.8941 31.3232 20.9997C31.2779 21.1054 31.2025 21.1955 31.1064 21.2591C31.0104 21.3226 30.8977 21.3568 30.7824 21.3574C30.7013 21.3584 30.621 21.3427 30.5463 21.3113C30.4717 21.2799 30.4044 21.2335 30.3487 21.1749C30.2929 21.1163 30.25 21.0469 30.2225 20.971C30.195 20.8951 30.1836 20.8143 30.1889 20.7338ZM15.8181 20.7338V19.7598H15.3925V19.9962C15.3202 19.9035 15.2269 19.8294 15.1201 19.7798C15.0134 19.7302 14.8963 19.7065 14.7786 19.7109C14.5073 19.7109 14.247 19.8182 14.0552 20.0093C13.8633 20.2004 13.7555 20.4595 13.7555 20.7298C13.7555 21 13.8633 21.2591 14.0552 21.4502C14.247 21.6413 14.5073 21.7486 14.7786 21.7486C14.8963 21.753 15.0134 21.7294 15.1201 21.6797C15.2269 21.6301 15.3202 21.556 15.3925 21.4634V21.6997H15.8181V20.7338ZM14.2343 20.7338C14.2411 20.6192 14.2814 20.509 14.3503 20.4168C14.4192 20.3247 14.5136 20.2546 14.622 20.2152C14.7303 20.1759 14.8479 20.1689 14.9602 20.1952C15.0724 20.2216 15.1745 20.28 15.2539 20.3634C15.3332 20.4468 15.3864 20.5514 15.4067 20.6645C15.4271 20.7776 15.4138 20.8941 15.3685 20.9997C15.3232 21.1054 15.2479 21.1955 15.1518 21.2591C15.0557 21.3226 14.9431 21.3568 14.8277 21.3574C14.7464 21.359 14.6656 21.3437 14.5904 21.3126C14.5153 21.2814 14.4475 21.235 14.3913 21.1764C14.3351 21.1178 14.2918 21.0482 14.2641 20.972C14.2364 20.8958 14.2248 20.8147 14.2302 20.7338H14.2343Z" fill="#231F20"/>
<path d="M24.2223 4.91479H17.7766V16.4507H24.2223V4.91479Z" fill="#FF5F00"/>
<path d="M18.1858 10.6834C18.1846 9.57225 18.4373 8.4754 18.9248 7.47591C19.4123 6.47642 20.1217 5.60049 20.9994 4.91445C19.9127 4.06392 18.6076 3.53503 17.2333 3.38822C15.859 3.24141 14.4709 3.48261 13.2278 4.08424C11.9846 4.68587 10.9365 5.62367 10.2032 6.79045C9.46994 7.95723 9.08108 9.30592 9.08108 10.6824C9.08108 12.0588 9.46994 13.4075 10.2032 14.5743C10.9365 15.7411 11.9846 16.6789 13.2278 17.2805C14.4709 17.8821 15.859 18.1233 17.2333 17.9765C18.6076 17.8297 19.9127 17.3008 20.9994 16.4503C20.122 15.7645 19.4127 14.8889 18.9252 13.8898C18.4378 12.8906 18.1849 11.7942 18.1858 10.6834Z" fill="#EB001B"/>
<path d="M32.919 10.6838C32.9189 12.0603 32.53 13.4091 31.7966 14.5759C31.0631 15.7428 30.0149 16.6805 28.7716 17.2821C27.5282 17.8836 26.1401 18.1247 24.7657 17.9777C23.3913 17.8306 22.0862 17.3015 20.9995 16.4507C21.8766 15.7643 22.5857 14.8884 23.0733 13.8892C23.5609 12.8901 23.8142 11.7937 23.8142 10.6828C23.8142 9.57186 23.5609 8.47546 23.0733 7.47629C22.5857 6.47712 21.8766 5.60128 20.9995 4.91484C22.0862 4.06405 23.3913 3.5349 24.7657 3.38788C26.1401 3.24086 27.5282 3.4819 28.7716 4.08345C30.0149 4.68499 31.0631 5.62278 31.7966 6.7896C32.53 7.95642 32.9189 9.30519 32.919 10.6818V10.6838Z" fill="#F79E1B"/>
<path d="M32.215 15.2278V14.9914H32.3112V14.9425H32.0677V14.9914H32.1721V15.2278H32.215ZM32.6877 15.2278V14.9425H32.6141L32.5281 15.1463L32.4422 14.9425H32.3767V15.2278H32.4299V15.0139L32.5097 15.1993H32.5649L32.6447 15.0139V15.2299L32.6877 15.2278Z" fill="#F79E1B"/>
</svg>
