<svg width="42" height="26" viewBox="0 0 42 26" fill="none" xmlns="http://www.w3.org/2000/svg">
<rect width="42" height="26" rx="4" fill="#F6F6F6"/>
<path fill-rule="evenodd" clip-rule="evenodd" d="M21.3932 19.5699H28.7623C30.445 19.5699 30.4618 17.7627 30.2905 16.8705C30.1968 16.2709 29.1883 16.276 29.0773 16.8705V17.5667C29.0773 17.8847 28.8196 18.1451 28.5048 18.1451H21.3932H20.8245H14.3765C14.0616 18.1451 13.8041 17.8847 13.8041 17.5667V16.8705C13.6931 16.276 12.6846 16.2709 12.591 16.8705C12.4197 17.7627 12.4362 19.5699 14.1191 19.5699H20.8245H21.3932ZM16.1833 2.26086H26.9758H27.5459C28.3443 2.26086 28.9974 2.95927 28.9974 3.81288V4.55466C28.9974 5.60334 27.5914 5.5994 27.5914 4.56174V4.15653C27.5914 3.89881 27.3828 3.68806 27.1275 3.68806H15.7417C15.4866 3.68806 15.278 3.89881 15.278 4.15653V4.55349C15.278 5.59644 13.9381 5.589 13.9381 4.57607V3.81288C13.9381 2.95927 14.5912 2.26086 15.3895 2.26086H16.1833Z" fill="#2A6BAE"/>
<path fill-rule="evenodd" clip-rule="evenodd" d="M28.71 10.7868C29.4969 11.1609 30.0403 11.933 30.0403 12.8196C30.0403 14.0697 28.9602 15.0924 27.6399 15.0924H23.9395C23.5934 15.0924 23.3102 14.8242 23.3102 14.4966V7.38273C23.3102 7.03971 23.5884 6.75879 23.9284 6.75879H27.0105C28.3079 6.75879 29.3694 7.83032 29.3694 9.13986C29.3694 9.77742 29.1177 10.3583 28.71 10.7868ZM25.9481 10.2075H27.1229V10.1943C27.658 10.1113 28.0711 9.64131 28.0711 9.07848C28.0711 8.45758 27.5683 7.9495 26.9538 7.9495H24.5873V13.8526H27.5883C28.2229 13.8526 28.7421 13.3281 28.7421 12.6868C28.7421 12.0455 28.2229 11.5209 27.5883 11.5209H27.1229V11.5181H25.9481C25.5913 11.5181 25.2995 11.2233 25.2995 10.8628C25.2995 10.5024 25.5913 10.2075 25.9481 10.2075Z" fill="#424041"/>
<path d="M16.6523 21.7538C16.6523 21.643 16.7411 21.5533 16.8507 21.5533C16.9602 21.5533 17.0492 21.643 17.0492 21.7538V22.8381V22.8385H17.0484C17.0484 23.0864 16.948 23.3115 16.7865 23.4747C16.6257 23.6372 16.4032 23.7381 16.158 23.7382V23.7391H16.1576H16.1573V23.7382C15.912 23.7382 15.6891 23.6369 15.5277 23.4736C15.3668 23.3111 15.267 23.0864 15.2669 22.8388H15.266V22.8381V21.7538C15.266 21.643 15.355 21.5533 15.4645 21.5533C15.5741 21.5533 15.6629 21.643 15.6629 21.7538V22.8381V22.8388H15.6622C15.6622 22.9756 15.7182 23.1006 15.8083 23.1917C15.898 23.2822 16.0216 23.3387 16.1573 23.3387V23.338H16.1576H16.158V23.3387C16.2936 23.3387 16.4175 23.2822 16.5075 23.1911C16.5972 23.1005 16.653 22.9756 16.653 22.8385H16.6523V22.8381V21.7538Z" fill="#424041"/>
<path d="M18.5276 23.3379C18.6371 23.3379 18.726 23.4277 18.726 23.5384C18.726 23.6491 18.6371 23.739 18.5276 23.739H17.9797H17.9796V23.7381C17.7742 23.7381 17.5877 23.6533 17.4525 23.5169C17.3181 23.3808 17.2345 23.1928 17.2344 22.9854H17.2337V22.9849V21.7537C17.2337 21.643 17.3225 21.5531 17.432 21.5531C17.5416 21.5531 17.6304 21.643 17.6304 21.7537V22.9849V22.9854H17.6297C17.6297 23.082 17.6693 23.1703 17.7332 23.2348C17.7966 23.2987 17.8838 23.3386 17.9796 23.3386V23.3379H17.9797H18.5276Z" fill="#424041"/>
<path d="M22.7224 14.3824C22.7659 14.7944 22.4703 15.164 22.0625 15.2076C21.6548 15.2516 21.289 14.9531 21.2458 14.5409L20.6373 8.88364L18.4822 14.4152L18.48 14.4204L18.4798 14.4211V14.4212L18.4739 14.4358L18.469 14.4473L18.4678 14.4501L18.4628 14.4617L18.4595 14.4686L18.4544 14.4793L18.4519 14.4843L18.4462 14.4957L18.4441 14.4997C18.4044 14.5755 18.3533 14.642 18.2936 14.698L18.2913 14.6998L18.2803 14.7101C18.2414 14.7449 18.1985 14.7756 18.1518 14.802L18.1487 14.8038L18.1346 14.8115L18.134 14.8118L18.121 14.8186L18.115 14.8216L18.1067 14.8256L18.0978 14.8298L18.09 14.8334L18.0808 14.8375L18.0728 14.8409L18.0652 14.8441L18.0584 14.8468L18.0544 14.8484L18.0481 14.8507L18.0383 14.8544L18.0327 14.8564C17.9607 14.8817 17.8876 14.8954 17.8149 14.898L17.8062 14.8982L17.7957 14.8984H17.7881H17.7804L17.7702 14.8982L17.7608 14.898C17.6797 14.895 17.5976 14.8783 17.5177 14.8468L17.5078 14.8428L17.5053 14.8416L17.4953 14.8376L17.4857 14.8334L17.478 14.8296L17.4696 14.8258L17.4607 14.8215L17.4556 14.8188L17.442 14.8119L17.4407 14.811L17.4292 14.8047L17.4225 14.8011C17.3818 14.778 17.344 14.7513 17.309 14.7216L17.3063 14.7191C17.2979 14.7118 17.2898 14.7048 17.2817 14.6972L17.2813 14.6966C17.2751 14.6907 17.2688 14.6847 17.2627 14.6786C17.2568 14.6724 17.2506 14.6662 17.2448 14.6599L17.2444 14.6592C17.2369 14.6512 17.2297 14.643 17.2226 14.6345L17.2201 14.6316C17.1907 14.5964 17.1645 14.5582 17.1415 14.5169L17.1379 14.5105L17.1314 14.4987L17.1309 14.4972L17.1238 14.4838L17.1214 14.4784L17.1171 14.4696L17.1131 14.461L17.1097 14.4532L17.1054 14.4435L17.1011 14.4336L17.1003 14.4311L17.0962 14.4211L14.9387 8.88364L14.3303 14.5409C14.2869 14.9531 13.9212 15.2516 13.5135 15.2076C13.1056 15.164 12.8102 14.7944 12.8536 14.3824L13.5709 7.71255L13.5712 7.71084L13.5715 7.70797L13.5712 7.70789C13.5798 7.6302 13.596 7.55286 13.6194 7.47697C13.642 7.40331 13.6723 7.33073 13.7097 7.25984C13.8929 6.91217 14.2299 6.66834 14.6321 6.61207L14.6336 6.6118C14.647 6.61001 14.6606 6.60857 14.674 6.60732C14.737 6.60069 14.7997 6.5988 14.8613 6.60176L14.8642 6.60194V6.60176C14.9444 6.60561 15.0195 6.61574 15.0888 6.63205C15.4724 6.72246 15.7983 6.99218 15.9517 7.38592L17.7881 12.0989L19.6243 7.38592C19.7777 6.99218 20.1036 6.72246 20.4873 6.63205C20.5564 6.61574 20.6315 6.60561 20.7118 6.60176V6.60194L20.7147 6.60176C20.7766 6.5988 20.8393 6.60069 20.9025 6.60732C20.9157 6.60857 20.929 6.61001 20.9425 6.6118L20.9439 6.61207C21.3462 6.66834 21.6833 6.91217 21.8665 7.25984C21.9038 7.33073 21.9341 7.40331 21.9566 7.47697C21.98 7.55286 21.9962 7.63002 22.0049 7.70789L22.0045 7.70797L22.0049 7.71084L22.0052 7.71255L22.7224 14.3824Z" fill="#424041"/>
<path d="M15.1924 23.5147C15.2053 23.6246 15.1274 23.7243 15.0189 23.7372C14.9101 23.7501 14.8114 23.6717 14.7986 23.5617L14.6285 22.1178L14.0223 23.5384C13.979 23.6401 13.8624 23.6871 13.7619 23.6433C13.7133 23.6224 13.6773 23.5838 13.6581 23.5384L13.0518 22.1178L12.8816 23.5617C12.8687 23.6717 12.7701 23.7501 12.6614 23.7372C12.5527 23.7243 12.475 23.6246 12.4879 23.5147L12.6852 21.8383C12.6981 21.7288 12.7641 21.6389 12.8587 21.5895C12.8711 21.5829 12.8841 21.5771 12.8972 21.5721C12.9023 21.5701 12.9073 21.5683 12.9126 21.5667C12.9294 21.5614 12.9489 21.5569 12.971 21.5539V21.5541L12.9726 21.5539L12.9744 21.5537C13.0779 21.5404 13.1801 21.5742 13.2515 21.6421C13.2658 21.6558 13.2794 21.6716 13.292 21.6892C13.3004 21.7013 13.3083 21.7139 13.315 21.7269C13.3193 21.7341 13.3229 21.7413 13.3261 21.7491L13.8401 22.9533L14.354 21.7491C14.3965 21.6498 14.4839 21.5819 14.5862 21.5591C14.6058 21.5548 14.6253 21.5519 14.6445 21.5511C14.6592 21.5503 14.6738 21.5503 14.6877 21.5512L14.689 21.5513C14.6938 21.5516 14.6987 21.5521 14.7036 21.5527L14.7052 21.553L14.7051 21.5536L14.706 21.5537C14.812 21.5673 14.9023 21.6275 14.953 21.7139H14.9529C14.9635 21.7319 14.9721 21.7511 14.9792 21.771C14.9834 21.7835 14.9872 21.7965 14.99 21.8102C14.992 21.8188 14.9936 21.8275 14.9946 21.8366L14.9949 21.8383L15.1924 23.5147Z" fill="#424041"/>
<path d="M19.3944 23.5386C19.3944 23.6494 19.3056 23.7391 19.196 23.7391C19.0864 23.7391 18.9976 23.6494 18.9976 23.5386V21.9544H18.4329C18.3234 21.9544 18.2346 21.8645 18.2346 21.7538C18.2346 21.643 18.3234 21.5533 18.4329 21.5533H19.196H19.9591C20.0686 21.5533 20.1574 21.643 20.1574 21.7538C20.1574 21.8645 20.0686 21.9544 19.9591 21.9544H19.3944V23.5386Z" fill="#424041"/>
<path d="M20.6658 23.5386C20.6658 23.6494 20.5701 23.7391 20.4522 23.7391C20.3342 23.7391 20.2386 23.6494 20.2386 23.5386V21.7538C20.2386 21.643 20.3342 21.5533 20.4522 21.5533C20.5701 21.5533 20.6658 21.643 20.6658 21.7538V23.5386Z" fill="#424041"/>
<path d="M24.7028 23.5143C24.7161 23.6242 24.6387 23.7243 24.5298 23.7376C24.4212 23.7511 24.3224 23.6728 24.3091 23.5629L24.2393 22.9967H23.5516C23.442 22.9967 23.3532 22.9069 23.3532 22.7962C23.3532 22.6855 23.442 22.5956 23.5516 22.5956H24.1899L24.1718 22.4485L24.1714 22.4469C24.1709 22.4422 24.1704 22.4374 24.1703 22.4329C24.1651 22.3992 24.1577 22.365 24.1474 22.3304C24.1358 22.2918 24.1221 22.2561 24.1066 22.2248C24.0278 22.0657 23.8854 21.9544 23.7053 21.9544H23.7034V21.9537C23.669 21.9537 23.6354 21.958 23.6036 21.9658C23.5736 21.9731 23.544 21.9845 23.5149 21.9993C23.3627 22.0777 23.2608 22.249 23.2388 22.4462L23.1146 23.5606C23.1026 23.6705 23.0046 23.7498 22.8959 23.7376C22.7874 23.7255 22.709 23.6265 22.7209 23.5167L22.8449 22.4023C22.8816 22.0733 23.0624 21.7823 23.3352 21.6421C23.3888 21.6146 23.4474 21.5925 23.5106 21.5773C23.5716 21.5622 23.6361 21.5544 23.7034 21.5542V21.5533H23.7053C24.0493 21.5533 24.3165 21.7565 24.46 22.0461C24.4876 22.1019 24.5103 22.1587 24.5272 22.2162C24.5424 22.2674 24.5539 22.322 24.562 22.3794C24.5634 22.3856 24.5646 22.3918 24.5653 22.3982L24.5656 22.3998L24.7028 23.5143Z" fill="#424041"/>
<path d="M25.3103 23.5386C25.3103 23.6494 25.2216 23.7391 25.112 23.7391C25.0024 23.7391 24.9134 23.6494 24.9134 23.5386V21.8808V21.88C24.9134 21.8685 24.9143 21.8569 24.9162 21.846C24.9188 21.8234 24.9242 21.8017 24.9318 21.7811L24.9321 21.7805L24.9318 21.7803C24.9359 21.7693 24.9416 21.7573 24.9482 21.7445L24.9486 21.7438L24.9482 21.7438C24.9813 21.6829 25.0352 21.6357 25.1032 21.612C25.1122 21.6091 25.1214 21.6065 25.1305 21.6047C25.1375 21.6031 25.1446 21.6016 25.1516 21.6006L25.1532 21.6003V21.5997C25.1665 21.5978 25.1824 21.5969 25.2006 21.5973H25.2021H25.2056H25.2058C25.2871 21.6006 25.3631 21.6386 25.4155 21.7061L26.4716 23.067V21.7538C26.4716 21.643 26.5606 21.5533 26.6702 21.5533C26.7797 21.5533 26.8686 21.643 26.8686 21.7538V23.4045C26.8686 23.4917 26.8297 23.5705 26.765 23.6239C26.7527 23.634 26.7391 23.6435 26.7245 23.6517C26.7166 23.6561 26.7083 23.6601 26.6998 23.664L26.6977 23.6649L26.6972 23.665C26.6919 23.6675 26.6865 23.6699 26.6808 23.6718L26.6803 23.672V23.6718H26.6801L26.6799 23.6716L26.6786 23.672C26.6066 23.6971 26.531 23.6918 26.4659 23.6599C26.4573 23.6563 26.4488 23.6519 26.4404 23.6465C26.4269 23.6383 26.4136 23.628 26.401 23.6168C26.3931 23.6098 26.3847 23.6009 26.3758 23.5901L26.3692 23.5824L26.3688 23.582L26.3689 23.5819L26.3664 23.5788L25.3103 22.2181V23.5386Z" fill="#424041"/>
<path d="M28.4095 23.3379C28.5191 23.3379 28.608 23.4277 28.608 23.5384C28.608 23.6491 28.5191 23.739 28.4095 23.739H27.8249H27.8246V23.7381C27.6092 23.7381 27.4134 23.6489 27.2717 23.5058C27.1306 23.3632 27.0429 23.1657 27.0426 22.9481H27.0419V22.9477V22.3445V22.3442H27.0426C27.0428 22.1264 27.1307 21.9285 27.2725 21.7853C27.4138 21.6429 27.6092 21.5542 27.8243 21.554V21.5531H27.8249H28.4095C28.5191 21.5531 28.608 21.643 28.608 21.7537C28.608 21.8644 28.5191 21.9542 28.4095 21.9542H27.8249H27.8243V21.9535C27.7187 21.9535 27.622 21.9977 27.5515 22.0689C27.4815 22.1398 27.438 22.2372 27.438 22.3442H27.4386V22.3445V22.9477V22.9481H27.438C27.438 23.0549 27.4817 23.1527 27.5523 23.2238C27.6223 23.2945 27.7187 23.3386 27.8246 23.3386V23.3379H27.8249H28.4095Z" fill="#424041"/>
<path fill-rule="evenodd" clip-rule="evenodd" d="M29.5576 21.5531H29.5574H29.5569V21.554C29.3042 21.5542 29.074 21.6548 28.9071 21.8167C28.7381 21.9807 28.633 22.2082 28.6329 22.459H28.6321V22.4593V22.8328V22.8332H28.6329C28.633 23.0841 28.7381 23.3112 28.9068 23.4752C29.0738 23.6373 29.3042 23.7381 29.5572 23.7381V23.739H29.5574H29.558V23.7381C29.8108 23.738 30.041 23.6373 30.2079 23.4754C30.377 23.3112 30.4818 23.0839 30.482 22.833H30.4827V22.8328V22.4593V22.4589H30.482C30.4818 22.208 30.377 21.9809 30.208 21.8167C30.041 21.6548 29.8106 21.554 29.5576 21.554V21.5531ZM29.5576 21.9542V21.9535C29.7042 21.9535 29.8372 22.0116 29.9337 22.1051C30.0279 22.1966 30.0865 22.3219 30.0866 22.4589H30.0859V22.4593V22.8328V22.833H30.0866C30.0866 22.9701 30.0279 23.0954 29.9335 23.1869C29.8372 23.2805 29.7043 23.3387 29.558 23.3387V23.3379H29.5574H29.5572V23.3387C29.4107 23.3387 29.2776 23.2804 29.1812 23.1869C29.0869 23.0953 29.0284 22.9701 29.0282 22.8332H29.0291V22.8328V22.4593V22.459H29.0282C29.0284 22.322 29.0869 22.1966 29.1814 22.1049C29.2776 22.0116 29.4107 21.9535 29.5569 21.9535V21.9542H29.5574H29.5576Z" fill="#424041"/>
<path fill-rule="evenodd" clip-rule="evenodd" d="M20.7989 21.7624V22.6335V23.5384C20.7989 23.6491 20.8877 23.739 20.9973 23.739H21.9622H21.9626V23.7381C22.1404 23.738 22.3015 23.6649 22.4179 23.5474C22.5348 23.4291 22.6076 23.2659 22.6076 23.0863H22.6083V23.0859V23.0854H22.6076C22.6075 22.9122 22.5401 22.7546 22.431 22.6381C22.4271 22.6335 22.4231 22.6289 22.4188 22.6246C22.3848 22.5904 22.347 22.56 22.3062 22.5339C22.3677 22.4353 22.4037 22.3186 22.4037 22.1938H22.4045V22.1936V22.1934V22.193H22.4037C22.4035 22.0169 22.3326 21.8573 22.2184 21.7419C22.1039 21.626 21.9454 21.554 21.7709 21.554V21.5531H21.7707H21.006H21.0054V21.5535C21.0016 21.5534 20.9977 21.5537 20.9937 21.554C20.9417 21.5571 20.8971 21.5788 20.8634 21.6113L20.8635 21.6114L20.861 21.6136C20.8415 21.6329 20.8258 21.6564 20.8151 21.6826C20.8047 21.707 20.7989 21.7339 20.7989 21.7622V21.7624ZM21.1956 22.6335V21.9542H21.7707H21.7709V21.9535C21.8357 21.9535 21.895 21.9806 21.9379 22.024C21.9813 22.0678 22.0083 22.1278 22.0083 22.193H22.0076V22.1934V22.1936V22.1938H22.0083C22.0083 22.2593 21.9814 22.3191 21.9385 22.3626L21.9382 22.3629L21.9379 22.3626C21.8984 22.4023 21.8459 22.4285 21.7885 22.4329H21.7713H21.7707H21.6982C21.5888 22.4329 21.4998 22.5231 21.4998 22.6335C21.4998 22.7439 21.5888 22.834 21.6982 22.834H21.7707H21.7713H21.9622H21.9625V22.8332C22.0301 22.8332 22.0925 22.8619 22.1382 22.9082L22.1458 22.9156C22.187 22.9608 22.2121 23.0207 22.2121 23.0854H22.2116V23.0859V23.0863H22.2121C22.2121 23.1552 22.1841 23.2182 22.1388 23.2638C22.0931 23.31 22.0307 23.3387 21.9626 23.3387V23.3379H21.9622H21.1956V22.6335Z" fill="#424041"/>
</svg>
