<svg width="42" height="26" viewBox="0 0 42 26" fill="none" xmlns="http://www.w3.org/2000/svg">
<rect width="42" height="26" rx="4" fill="#F6F6F6"/>
<path fill-rule="evenodd" clip-rule="evenodd" d="M5.92955 7.9136H8.48848C9.34494 7.9136 9.99001 8.14833 10.3537 8.59214C10.6848 8.99631 10.7945 9.57335 10.68 10.3078C10.4259 11.9866 9.45308 12.8338 7.76745 12.8338H6.95736C6.78263 12.8338 6.63335 12.9659 6.6064 13.1459L6.32727 14.984C6.29995 15.1639 6.15104 15.296 5.97593 15.296H4.75426C4.62294 15.296 4.52265 15.1747 4.54323 15.0404L5.57818 8.22532C5.60551 8.0457 5.75442 7.9136 5.92955 7.9136ZM7.26381 11.3563C7.94219 11.3563 8.64376 11.3563 8.78371 10.4027C8.83497 10.0677 8.79381 9.82517 8.65946 9.66198C8.43423 9.38836 7.9983 9.38836 7.5362 9.38836H7.35924C7.25446 9.38836 7.16468 9.46763 7.14857 9.57531L6.87768 11.3563H7.26381Z" fill="#283B82"/>
<path fill-rule="evenodd" clip-rule="evenodd" d="M14.9123 10.3717H16.1376C16.2686 10.3717 16.3686 10.4934 16.3476 10.6274L15.6853 14.9834C15.6576 15.1632 15.5094 15.2954 15.3339 15.2954H14.2302C14.0996 15.2954 13.9993 15.1741 14.0199 15.0389L14.0745 14.6852C14.0745 14.6852 13.4695 15.4139 12.3784 15.4139C11.7427 15.4139 11.2084 15.2235 10.835 14.7665C10.4279 14.2694 10.2614 13.5567 10.3785 12.8114C10.6037 11.3172 11.7603 10.252 13.1143 10.252C13.7048 10.252 14.2964 10.3857 14.5617 10.7855L14.6474 10.9146L14.7016 10.5586C14.7177 10.451 14.8079 10.3717 14.9123 10.3717ZM13.0471 14.0639C13.7557 14.0639 14.3114 13.5758 14.4296 12.8487C14.483 12.4966 14.4091 12.1772 14.2223 11.9483C14.036 11.7217 13.7532 11.6017 13.4051 11.6017C12.7073 11.6017 12.1423 12.1057 12.0319 12.8265C11.9743 13.1802 12.0431 13.4977 12.2242 13.7207C12.4069 13.9454 12.6912 14.0639 13.0471 14.0639Z" fill="#283B82"/>
<path d="M22.6639 10.3719H21.4326C21.315 10.3719 21.2047 10.4325 21.1381 10.5339L19.4397 13.1322L18.7199 10.6354C18.6746 10.4792 18.5358 10.3719 18.3786 10.3719H17.1686C17.0215 10.3719 16.9194 10.5211 16.9662 10.6649L18.3225 14.7989L17.0473 16.6686C16.947 16.8158 17.0481 17.0183 17.2213 17.0183H18.4512C18.5679 17.0183 18.6772 16.9592 18.7435 16.8597L22.8391 10.7197C22.9371 10.5728 22.8365 10.3719 22.6639 10.3719Z" fill="#283B82"/>
<path fill-rule="evenodd" clip-rule="evenodd" d="M24.1814 7.91351H26.7407C27.5972 7.91351 28.2418 8.14824 28.6052 8.59205C28.9364 8.99622 29.0467 9.57326 28.9318 10.3077C28.6774 11.9865 27.7049 12.8337 26.019 12.8337H25.2092C25.0345 12.8337 24.8852 12.9658 24.8582 13.1458L24.5645 15.0775C24.5455 15.2034 24.441 15.2959 24.3191 15.2959H23.0057C22.8752 15.2959 22.7749 15.1746 22.7955 15.0403L23.8304 8.22523C23.8577 8.04561 24.0067 7.91351 24.1814 7.91351ZM25.516 11.3562C26.1948 11.3562 26.8963 11.3562 27.036 10.4026C27.0871 10.0676 27.0464 9.82508 26.9121 9.66189C26.6869 9.38827 26.2506 9.38826 25.7888 9.38826H25.6118C25.5067 9.38826 25.4177 9.46754 25.4016 9.57521L25.1303 11.3562H25.516Z" fill="#469BDB"/>
<path fill-rule="evenodd" clip-rule="evenodd" d="M33.165 10.3717H34.3897C34.5209 10.3717 34.6212 10.4934 34.601 10.6274L33.9384 14.9834C33.9111 15.1632 33.7621 15.2954 33.5874 15.2954H32.484C32.3526 15.2954 32.2524 15.1741 32.2729 15.0389L32.3275 14.6852C32.3275 14.6852 31.7226 15.4139 30.6314 15.4139C29.9957 15.4139 29.4622 15.2235 29.0881 14.7665C28.6809 14.2694 28.5152 13.5567 28.6319 12.8114C28.8572 11.3172 30.0133 10.252 31.3675 10.252C31.9579 10.252 32.5492 10.3857 32.8144 10.7855L32.9005 10.9146L32.9547 10.5586C32.9704 10.451 33.0598 10.3717 33.165 10.3717ZM31.299 14.0639C32.0077 14.0639 32.564 13.5758 32.6815 12.8487C32.7358 12.4966 32.6617 12.1772 32.4742 11.9483C32.2879 11.7217 32.0051 11.6017 31.6571 11.6017C30.9592 11.6017 30.395 12.1057 30.2839 12.8265C30.227 13.1802 30.2952 13.4977 30.4762 13.7207C30.6588 13.9454 30.9439 14.0639 31.299 14.0639Z" fill="#469BDB"/>
<path d="M35.8342 8.10033L34.7839 15.0401C34.7634 15.1745 34.8636 15.2958 34.9943 15.2958H36.0501C36.2256 15.2958 36.3746 15.1637 36.4015 14.9838L37.4372 8.16918C37.4578 8.03465 37.3576 7.91306 37.2269 7.91306H36.0445C35.9401 7.91338 35.8503 7.99273 35.8342 8.10033Z" fill="#469BDB"/>
</svg>
