<svg width="42" height="26" viewBox="0 0 42 26" fill="none" xmlns="http://www.w3.org/2000/svg">
<rect width="42" height="26" rx="4" fill="#F6F6F6"/>
<path fill-rule="evenodd" clip-rule="evenodd" d="M21.2879 11.1723C21.2707 12.5001 22.498 13.241 23.4227 13.6816C24.3727 14.1336 24.6917 14.4235 24.6881 14.8276C24.6809 15.4463 23.9303 15.7193 23.2278 15.7299C22.0022 15.7486 21.2897 15.4064 20.7232 15.1476L20.2818 17.1677C20.8501 17.4238 21.9025 17.6472 22.9939 17.657C25.5556 17.657 27.2317 16.4204 27.2407 14.5032C27.2507 12.0702 23.7989 11.9354 23.8224 10.8478C23.8306 10.5181 24.1524 10.1663 24.8577 10.0767C25.2066 10.0315 26.1702 9.99693 27.2625 10.4889L27.6913 8.53439C27.1039 8.32526 26.3488 8.12494 25.4088 8.12494C22.9975 8.12494 21.3015 9.37826 21.2879 11.1723ZM31.8112 8.29334C31.3435 8.29334 30.9491 8.56014 30.7733 8.96967L27.1138 17.5134H29.6738L30.1832 16.1368H33.3115L33.607 17.5134H35.8632L33.8943 8.29334H31.8112ZM32.1693 10.784L32.9081 14.2462H30.8848L32.1693 10.784ZM18.1841 8.29334L16.1663 17.5134H18.6057L20.6226 8.29334H18.1841ZM14.5755 8.29334L12.0364 14.5689L11.0094 9.23289C10.8888 8.63724 10.4129 8.29334 9.88445 8.29334H5.73369L5.67567 8.561C6.52777 8.74181 7.49588 9.03343 8.08237 9.34549C8.44134 9.53605 8.54377 9.70266 8.66161 10.1556L10.6069 17.5134H13.185L17.1372 8.29334H14.5755Z" fill="#1A1F70"/>
</svg>
